<svg width="68" height="69" viewBox="0 0 68 69" fill="none" xmlns="http://www.w3.org/2000/svg"><g clip-path="url(#clip0)"><path d="M34.5016 14.1972L34.5165 33.6612L17.6528 43.3803C17.3072 42.7813 17.1205 42.1039 17.1105 41.4125L17.1107 25.9759C17.1255 24.5171 17.9019 23.1722 19.1579 22.43L32.5263 14.7115C33.1301 14.3745 33.8101 14.1974 34.5016 14.1972Z" fill="#BB86FC" fill-opacity="0.5"/><path d="M35.3886 35.2522L52.2318 44.9766C51.9083 45.5352 51.4626 46.0132 50.928 46.375L37.4273 54.1589C36.1614 54.8883 34.6031 54.8891 33.3365 54.161L20.0392 46.4838C19.4128 46.1182 18.8912 45.5972 18.5249 44.9712L35.3886 35.2522Z" fill="#BB86FC" fill-opacity="0.96"/><path d="M38.4644 14.5704L51.7617 22.2475C53.0256 22.9804 53.8041 24.3304 53.8053 25.7914L53.8017 41.4387C53.7501 42.0597 53.5637 42.662 53.2555 43.2036L36.4123 33.4792L36.3974 14.0152C37.1226 14.0194 37.8346 14.2107 38.4644 14.5704Z" fill="#BB86FC" fill-opacity="0.7"/></g><defs><clipPath id="clip0"><rect width="49.134" height="49.134" fill="white" transform="translate(0.482056 43.4663) rotate(-60)"/></clipPath></defs></svg>
